<svg width="250" height="74" viewBox="0 0 250 74" fill="none" xmlns="http://www.w3.org/2000/svg">
<path fill-rule="evenodd" clip-rule="evenodd" d="M59.2462 53.8455V29.1161C59.2462 27.0411 58.8525 25.4967 58.0752 24.4829C57.2827 23.469 56.0007 22.9527 54.219 22.9527C52.4372 22.9527 51.0946 23.5685 50.1205 24.8097C49.1312 26.0557 48.6416 27.7849 48.6416 29.9878V53.8455H29.6231V29.533C29.6231 25.1414 28.0382 22.9527 24.8533 22.9527C22.9202 22.9527 21.4716 23.5827 20.4974 24.8571C19.5081 26.1315 19.0185 27.9601 19.0185 30.3336V53.8455H0V10.9385H19.0185V17.7178H19.2002C19.917 16.5145 21.0425 15.3017 22.6123 14.07C24.1669 12.824 25.9334 11.8244 27.9019 11.0522C29.8502 10.2942 31.9853 9.90576 34.2717 9.90576C37.5172 9.90576 40.2428 10.5074 42.4687 11.706C44.6794 12.8951 46.5217 14.7948 48.0157 17.3862C49.6309 14.9843 51.7659 13.1367 54.4461 11.8528C57.1263 10.5501 60.1143 9.90576 63.3901 9.90576C68.175 9.90576 71.8646 11.3649 74.4236 14.2974C76.9827 17.2298 78.2647 21.4651 78.2647 26.9984V53.8455H59.2462ZM146.117 53.8455V29.1161C146.117 27.0411 145.723 25.4967 144.946 24.4829C144.153 23.469 142.871 22.9527 141.089 22.9527C139.308 22.9527 137.965 23.5685 136.991 24.8097C136.002 26.0557 135.512 27.7849 135.512 29.9878V53.8455H116.494V29.533C116.494 25.1414 114.909 22.9527 111.724 22.9527C109.791 22.9527 108.342 23.5827 107.368 24.8571C106.379 26.1315 105.889 27.9601 105.889 30.3336V53.8455H86.8705V10.9385H105.889V17.7178H106.071C106.787 16.5145 107.913 15.3017 109.483 14.07C111.037 12.824 112.804 11.8244 114.772 11.0522C116.721 10.2942 118.856 9.90576 121.142 9.90576C124.388 9.90576 127.113 10.5074 129.339 11.706C131.55 12.8951 133.392 14.7948 134.886 17.3862C136.501 14.9843 138.636 13.1367 141.317 11.8528C143.997 10.5501 146.985 9.90576 150.261 9.90576C155.045 9.90576 158.735 11.3649 161.294 14.2974C163.853 17.2298 165.135 21.4651 165.135 26.9984V53.8455H146.117ZM225.31 31.0916C225.31 35.7817 224.457 39.9317 222.766 43.5368C221.075 47.1278 218.668 49.9276 215.574 51.9032C212.48 53.8929 209.007 54.8783 205.136 54.8783C199.77 54.8783 195.702 53.0496 192.946 49.3876H192.765V73.5864H173.746V10.9385H192.765V16.775H192.946C194.455 14.629 196.419 12.9425 198.826 11.7249C201.249 10.5074 203.975 9.9105 207.054 9.9105C212.934 9.9105 217.461 11.7534 220.601 15.4296C223.74 19.1201 225.31 24.3407 225.31 31.0916ZM206.019 31.6364C206.019 28.9313 205.454 26.8042 204.343 25.2598C203.233 23.7296 201.507 22.9574 199.195 22.9574C197.166 22.9574 195.536 23.7722 194.289 25.3877C193.037 27.0174 192.416 29.2345 192.416 32.0675V32.8966C192.416 35.6158 192.951 37.7714 194.016 39.4058C195.081 41.0213 196.696 41.8361 198.831 41.8361C201.133 41.8361 202.9 40.9502 204.151 39.1737C205.403 37.4019 206.024 34.8815 206.024 31.6364H206.019Z" fill="#17367F"/>
<path fill-rule="evenodd" clip-rule="evenodd" d="M232.109 17.8791V6.04028H237.702C238.827 6.04028 239.68 6.14924 240.266 6.35769C240.851 6.57088 241.316 6.94513 241.664 7.48046C242.012 8.01579 242.189 8.61271 242.189 9.26174C242.189 10.1003 241.896 10.8109 241.321 11.3841C240.74 11.9621 239.852 12.3221 238.641 12.4832C239.085 12.6822 239.418 12.8811 239.65 13.0706C240.14 13.4875 240.599 14.0181 241.028 14.6482L243.209 17.8744H241.124L239.458 15.4109C238.974 14.6956 238.57 14.1555 238.257 13.7765C237.939 13.3975 237.656 13.137 237.409 12.9854C237.162 12.8385 236.909 12.7295 236.647 12.6727C236.46 12.6348 236.152 12.6158 235.718 12.6158H233.785V17.8744H232.109V17.8791ZM233.785 11.2657H237.369C238.131 11.2657 238.727 11.1899 239.156 11.043C239.585 10.8962 239.908 10.6593 240.13 10.3324C240.352 10.0055 240.463 9.65495 240.463 9.27122C240.463 8.7122 240.251 8.24793 239.817 7.88788C239.383 7.52784 238.706 7.34782 237.773 7.34782H233.785V11.2657Z" fill="#17367F"/>
<path fill-rule="evenodd" clip-rule="evenodd" d="M237.301 0C240.809 0 243.983 1.33596 246.28 3.49149C248.577 5.64703 250 8.62688 250 11.9194C250 15.2119 248.577 18.1918 246.28 20.3473C243.983 22.5028 240.809 23.8388 237.301 23.8388C233.793 23.8388 230.618 22.5028 228.321 20.3473C226.025 18.1918 224.602 15.2119 224.602 11.9194C224.602 8.62688 226.025 5.64703 228.321 3.49149C230.618 1.33596 233.793 0 237.301 0ZM245.21 4.49583C243.186 2.59612 240.39 1.42123 237.301 1.42123C234.212 1.42123 231.416 2.59612 229.392 4.49583C227.368 6.39554 226.116 9.02008 226.116 11.9194C226.116 14.8187 227.368 17.4433 229.392 19.343C231.416 21.2427 234.212 22.4176 237.301 22.4176C240.39 22.4176 243.186 21.2427 245.21 19.343C247.234 17.4433 248.486 14.8187 248.486 11.9194C248.486 9.02008 247.234 6.39554 245.21 4.49583Z" fill="#17367F"/>
</svg>
